<svg class="poloto" width="800" height="500" viewBox="0 0 800 500" xmlns="http://www.w3.org/2000/svg">
	<style>
.poloto{
  stroke-linecap:round;
  stroke-linejoin:round;
  font-family:Roboto,sans-serif;
  font-size:16px;
}
.poloto_background{fill:AliceBlue;}
.poloto_scatter{stroke-width:7}
.poloto_line{stroke-width:2}
.poloto_text{fill: black;}
.poloto_name{font-size:24px;dominant-baseline:start;text-anchor:middle;}
.poloto_where{dominant-baseline:middle;text-anchor:start}
.poloto_text.poloto_legend{font-size:20px;dominant-baseline:middle;text-anchor:start;}
.poloto_text.poloto_ticks.poloto_y{dominant-baseline:middle;text-anchor:end}
.poloto_text.poloto_ticks.poloto_x{dominant-baseline:start;text-anchor:middle}
.poloto_imgs.poloto_ticks{stroke: black;stroke-width:3;fill:none;stroke-dasharray:none}
.poloto_grid{stroke:gray;stroke-width:0.5}

.poloto0.poloto_stroke{stroke:blue;}
.poloto1.poloto_stroke{stroke:red;}
.poloto2.poloto_stroke{stroke:green;}
.poloto3.poloto_stroke{stroke:gold;}
.poloto4.poloto_stroke{stroke:aqua;}
.poloto5.poloto_stroke{stroke:lime;}
.poloto6.poloto_stroke{stroke:orange;}
.poloto7.poloto_stroke{stroke:chocolate;}
.poloto0.poloto_fill{fill:blue;}
.poloto1.poloto_fill{fill:red;}
.poloto2.poloto_fill{fill:green;}
.poloto3.poloto_fill{fill:gold;}
.poloto4.poloto_fill{fill:aqua;}
.poloto5.poloto_fill{fill:lime;}
.poloto6.poloto_fill{fill:orange;}
.poloto7.poloto_fill{fill:chocolate;}

            .poloto_background{fill-opacity:0;}
            .poloto0.poloto_histo.poloto_imgs{fill:#3B77BC;stroke:black;stroke-width:1px}
            .poloto_grid{display:none}
            .poloto0.poloto_stroke{stroke:#3B77BC}
        
	</style>
	<circle r="1e5" class="poloto_background"/>
	<g id="poloto_plot0" class="poloto_plot poloto_imgs poloto_histo poloto0 poloto_fill">
		<rect x="150.00" y="360.00" width="213.19365798414498" height="20"/>
		<rect x="150.00" y="330.00" width="500" height="20"/>
		<rect x="150.00" y="300.00" width="216.8742921857305" height="20"/>
		<rect x="150.00" y="270.00" width="227.3499433748584" height="20"/>
		<rect x="150.00" y="240.00" width="94.28086070215176" height="20"/>
		<rect x="150.00" y="210.00" width="68.94110985277462" height="20"/>
		<rect x="150.00" y="180.00" width="38.64665911664778" height="20"/>
		<rect x="150.00" y="150.00" width="31.285390713476772" height="20"/>
		<rect x="150.00" y="120.00" width="1.274065685164203" height="20"/>
	</g>
	<text class="poloto_text poloto_name poloto_title" x="400.00" y="37.50">Products by Price</text>
	<text class="poloto_text poloto_name poloto_x" x="400.00" y="481.25">Products</text>
	<text class="poloto_text poloto_name poloto_y" x="37.50" y="250.00" transform="rotate(-90,37.50,250.00)">Price</text>
	<g class="poloto_text poloto_ticks poloto_y">
		<text x="135.00" y="370.00">[0-1)</text>
		<text x="135.00" y="340.00">[1-5)</text>
		<text x="135.00" y="310.00">[5-10)</text>
		<text x="135.00" y="280.00">[10-20)</text>
		<text x="135.00" y="250.00">[20-30)</text>
		<text x="135.00" y="220.00">[30-50)</text>
		<text x="135.00" y="190.00">[50-100)</text>
		<text x="135.00" y="160.00">[100-1000)</text>
		<text x="135.00" y="130.00">&gt;= 1000</text>
	</g>
	<g class="poloto_imgs poloto_ticks poloto_y">
		<line x1="150.00" x2="144.00" y1="370.00" y2="370.00"/>
		<line x1="150.00" x2="144.00" y1="340.00" y2="340.00"/>
		<line x1="150.00" x2="144.00" y1="310.00" y2="310.00"/>
		<line x1="150.00" x2="144.00" y1="280.00" y2="280.00"/>
		<line x1="150.00" x2="144.00" y1="250.00" y2="250.00"/>
		<line x1="150.00" x2="144.00" y1="220.00" y2="220.00"/>
		<line x1="150.00" x2="144.00" y1="190.00" y2="190.00"/>
		<line x1="150.00" x2="144.00" y1="160.00" y2="160.00"/>
		<line x1="150.00" x2="144.00" y1="130.00" y2="130.00"/>
	</g>
	<g class="poloto_text poloto_ticks poloto_x">
		<text x="150.00" y="430.00">0</text>
		<text x="220.78" y="430.00">500</text>
		<text x="291.56" y="430.00">1000</text>
		<text x="362.34" y="430.00">1500</text>
		<text x="433.13" y="430.00">2000</text>
		<text x="503.91" y="430.00">2500</text>
		<text x="574.69" y="430.00">3000</text>
		<text x="645.47" y="430.00">3500</text>
	</g>
	<g class="poloto_imgs poloto_ticks poloto_x">
		<line x1="150.00" x2="150.00" y1="400.00" y2="405.00"/>
		<line x1="220.78" x2="220.78" y1="400.00" y2="405.00"/>
		<line x1="291.56" x2="291.56" y1="400.00" y2="405.00"/>
		<line x1="362.34" x2="362.34" y1="400.00" y2="405.00"/>
		<line x1="433.13" x2="433.13" y1="400.00" y2="405.00"/>
		<line x1="503.91" x2="503.91" y1="400.00" y2="405.00"/>
		<line x1="574.69" x2="574.69" y1="400.00" y2="405.00"/>
		<line x1="645.47" x2="645.47" y1="400.00" y2="405.00"/>
	</g>
	<g class="poloto_grid poloto_x">
		<line x1="150.00" x2="150.00" y1="400.00" y2="100.00"/>
		<line x1="220.78" x2="220.78" y1="400.00" y2="100.00"/>
		<line x1="291.56" x2="291.56" y1="400.00" y2="100.00"/>
		<line x1="362.34" x2="362.34" y1="400.00" y2="100.00"/>
		<line x1="433.13" x2="433.13" y1="400.00" y2="100.00"/>
		<line x1="503.91" x2="503.91" y1="400.00" y2="100.00"/>
		<line x1="574.69" x2="574.69" y1="400.00" y2="100.00"/>
		<line x1="645.47" x2="645.47" y1="400.00" y2="100.00"/>
	</g>
	<path class="poloto_imgs poloto_ticks poloto_x" style="stroke-dasharray:7.078142695356739;stroke-dashoffset:-0;" d=" M 150.00 400.00 L 650.00 400.00"/>
	<path class="poloto_imgs poloto_ticks poloto_y" d=" M 150.00 400.00 L 150.00 100.00"/>
</svg>
