<svg class="poloto" width="800" height="500" viewBox="0 0 800 500" xmlns="http://www.w3.org/2000/svg">
	<style>
.poloto{
  stroke-linecap:round;
  stroke-linejoin:round;
  font-family:Roboto,sans-serif;
  font-size:16px;
}
.poloto_background{fill:AliceBlue;}
.poloto_scatter{stroke-width:7}
.poloto_line{stroke-width:2}
.poloto_text{fill: black;}
.poloto_name{font-size:24px;dominant-baseline:start;text-anchor:middle;}
.poloto_where{dominant-baseline:middle;text-anchor:start}
.poloto_text.poloto_legend{font-size:20px;dominant-baseline:middle;text-anchor:start;}
.poloto_text.poloto_ticks.poloto_y{dominant-baseline:middle;text-anchor:end}
.poloto_text.poloto_ticks.poloto_x{dominant-baseline:start;text-anchor:middle}
.poloto_imgs.poloto_ticks{stroke: black;stroke-width:3;fill:none;stroke-dasharray:none}
.poloto_grid{stroke:gray;stroke-width:0.5}

.poloto0.poloto_stroke{stroke:blue;}
.poloto1.poloto_stroke{stroke:red;}
.poloto2.poloto_stroke{stroke:green;}
.poloto3.poloto_stroke{stroke:gold;}
.poloto4.poloto_stroke{stroke:aqua;}
.poloto5.poloto_stroke{stroke:lime;}
.poloto6.poloto_stroke{stroke:orange;}
.poloto7.poloto_stroke{stroke:chocolate;}
.poloto0.poloto_fill{fill:blue;}
.poloto1.poloto_fill{fill:red;}
.poloto2.poloto_fill{fill:green;}
.poloto3.poloto_fill{fill:gold;}
.poloto4.poloto_fill{fill:aqua;}
.poloto5.poloto_fill{fill:lime;}
.poloto6.poloto_fill{fill:orange;}
.poloto7.poloto_fill{fill:chocolate;}

            .poloto_background{fill-opacity:0;}
            .poloto0.poloto_histo.poloto_imgs{fill:#3B77BC;stroke:black;stroke-width:1px}
            .poloto_grid{display:none}
            .poloto0.poloto_stroke{stroke:#3B77BC}
        
	</style>
	<circle r="1e5" class="poloto_background"/>
	<g id="poloto_plot0" class="poloto_plot poloto_imgs poloto_histo poloto0 poloto_fill">
		<rect x="150.00" y="366.92" width="500" height="20"/>
		<rect x="150.00" y="343.85" width="426.89398362591305" height="20"/>
		<rect x="150.00" y="320.77" width="158.32473758644403" height="20"/>
		<rect x="150.00" y="297.69" width="134.87537788849534" height="20"/>
		<rect x="150.00" y="274.62" width="51.2882267460719" height="20"/>
		<rect x="150.00" y="251.54" width="28.545177948179003" height="20"/>
		<rect x="150.00" y="228.46" width="7.557769906452336" height="20"/>
		<rect x="150.00" y="205.38" width="2.243814305917766" height="20"/>
		<rect x="150.00" y="182.31" width="1.831056271327185" height="20"/>
		<rect x="150.00" y="159.23" width="0.011352873250046969" height="20"/>
		<rect x="150.00" y="136.15" width="0.0008109195178462869" height="20"/>
		<rect x="150.00" y="113.08" width="0.004865517107162987" height="20"/>
	</g>
	<text class="poloto_text poloto_name poloto_title" x="400.00" y="37.50">Orders by Price</text>
	<text class="poloto_text poloto_name poloto_x" x="400.00" y="481.25">Orders</text>
	<text class="poloto_text poloto_name poloto_y" x="37.50" y="250.00" transform="rotate(-90,37.50,250.00)">Price</text>
	<g class="poloto_text poloto_ticks poloto_y">
		<text x="135.00" y="376.92">[0, 1)</text>
		<text x="135.00" y="353.85">[1, 5)</text>
		<text x="135.00" y="330.77">[5, 10)</text>
		<text x="135.00" y="307.69">[10, 20)</text>
		<text x="135.00" y="284.62">[20, 30)</text>
		<text x="135.00" y="261.54">[30, 50)</text>
		<text x="135.00" y="238.46">[50, 100)</text>
		<text x="135.00" y="215.38">[100, 200)</text>
		<text x="135.00" y="192.31">[200, 500)</text>
		<text x="135.00" y="169.23">[500, 700)</text>
		<text x="135.00" y="146.15">[700, 1000)</text>
		<text x="135.00" y="123.08">&gt;= 1000</text>
	</g>
	<g class="poloto_imgs poloto_ticks poloto_y">
		<line x1="150.00" x2="144.00" y1="376.92" y2="376.92"/>
		<line x1="150.00" x2="144.00" y1="353.85" y2="353.85"/>
		<line x1="150.00" x2="144.00" y1="330.77" y2="330.77"/>
		<line x1="150.00" x2="144.00" y1="307.69" y2="307.69"/>
		<line x1="150.00" x2="144.00" y1="284.62" y2="284.62"/>
		<line x1="150.00" x2="144.00" y1="261.54" y2="261.54"/>
		<line x1="150.00" x2="144.00" y1="238.46" y2="238.46"/>
		<line x1="150.00" x2="144.00" y1="215.38" y2="215.38"/>
		<line x1="150.00" x2="144.00" y1="192.31" y2="192.31"/>
		<line x1="150.00" x2="144.00" y1="169.23" y2="169.23"/>
		<line x1="150.00" x2="144.00" y1="146.15" y2="146.15"/>
		<line x1="150.00" x2="144.00" y1="123.08" y2="123.08"/>
	</g>
	<g class="poloto_text poloto_ticks poloto_x">
		<text x="150.00" y="430.00">0</text>
		<text x="231.09" y="430.00">1e5</text>
		<text x="312.18" y="430.00">2.0e5</text>
		<text x="393.28" y="430.00">3.0e5</text>
		<text x="474.37" y="430.00">4.0e5</text>
		<text x="555.46" y="430.00">5.0e5</text>
		<text x="636.55" y="430.00">6.0e5</text>
	</g>
	<g class="poloto_imgs poloto_ticks poloto_x">
		<line x1="150.00" x2="150.00" y1="400.00" y2="405.00"/>
		<line x1="231.09" x2="231.09" y1="400.00" y2="405.00"/>
		<line x1="312.18" x2="312.18" y1="400.00" y2="405.00"/>
		<line x1="393.28" x2="393.28" y1="400.00" y2="405.00"/>
		<line x1="474.37" x2="474.37" y1="400.00" y2="405.00"/>
		<line x1="555.46" x2="555.46" y1="400.00" y2="405.00"/>
		<line x1="636.55" x2="636.55" y1="400.00" y2="405.00"/>
	</g>
	<g class="poloto_grid poloto_x">
		<line x1="150.00" x2="150.00" y1="400.00" y2="100.00"/>
		<line x1="231.09" x2="231.09" y1="400.00" y2="100.00"/>
		<line x1="312.18" x2="312.18" y1="400.00" y2="100.00"/>
		<line x1="393.28" x2="393.28" y1="400.00" y2="100.00"/>
		<line x1="474.37" x2="474.37" y1="400.00" y2="100.00"/>
		<line x1="555.46" x2="555.46" y1="400.00" y2="100.00"/>
		<line x1="636.55" x2="636.55" y1="400.00" y2="100.00"/>
	</g>
	<path class="poloto_imgs poloto_ticks poloto_x" style="stroke-dasharray:8.109195178596915;stroke-dashoffset:-0;" d=" M 150.00 400.00 L 650.00 400.00"/>
	<path class="poloto_imgs poloto_ticks poloto_y" d=" M 150.00 400.00 L 150.00 100.00"/>
</svg>
