<svg class="poloto" width="800" height="500" viewBox="0 0 800 500" xmlns="http://www.w3.org/2000/svg">
	<style>
.poloto{
  stroke-linecap:round;
  stroke-linejoin:round;
  font-family:Roboto,sans-serif;
  font-size:16px;
}
.poloto_background{fill:AliceBlue;}
.poloto_scatter{stroke-width:7}
.poloto_line{stroke-width:2}
.poloto_text{fill: black;}
.poloto_name{font-size:24px;dominant-baseline:start;text-anchor:middle;}
.poloto_where{dominant-baseline:middle;text-anchor:start}
.poloto_text.poloto_legend{font-size:20px;dominant-baseline:middle;text-anchor:start;}
.poloto_text.poloto_ticks.poloto_y{dominant-baseline:middle;text-anchor:end}
.poloto_text.poloto_ticks.poloto_x{dominant-baseline:start;text-anchor:middle}
.poloto_imgs.poloto_ticks{stroke: black;stroke-width:3;fill:none;stroke-dasharray:none}
.poloto_grid{stroke:gray;stroke-width:0.5}

.poloto0.poloto_stroke{stroke:blue;}
.poloto1.poloto_stroke{stroke:red;}
.poloto2.poloto_stroke{stroke:green;}
.poloto3.poloto_stroke{stroke:gold;}
.poloto4.poloto_stroke{stroke:aqua;}
.poloto5.poloto_stroke{stroke:lime;}
.poloto6.poloto_stroke{stroke:orange;}
.poloto7.poloto_stroke{stroke:chocolate;}
.poloto0.poloto_fill{fill:blue;}
.poloto1.poloto_fill{fill:red;}
.poloto2.poloto_fill{fill:green;}
.poloto3.poloto_fill{fill:gold;}
.poloto4.poloto_fill{fill:aqua;}
.poloto5.poloto_fill{fill:lime;}
.poloto6.poloto_fill{fill:orange;}
.poloto7.poloto_fill{fill:chocolate;}

            .poloto_background{fill-opacity:0;}
            .poloto0.poloto_histo.poloto_imgs{fill:#3B77BC;stroke:black;stroke-width:1px}
            .poloto_grid{display:none}
            .poloto0.poloto_stroke{stroke:#3B77BC}
        
	</style>
	<circle r="1e5" class="poloto_background"/>
	<g id="poloto_plot0" class="poloto_plot poloto_imgs poloto_histo poloto0 poloto_fill">
		<rect x="150.00" y="365.00" width="250" height="20"/>
		<rect x="150.00" y="340.00" width="250" height="20"/>
		<rect x="150.00" y="315.00" width="250" height="20"/>
		<rect x="150.00" y="290.00" width="250" height="20"/>
		<rect x="150.00" y="265.00" width="250" height="20"/>
		<rect x="150.00" y="240.00" width="250" height="20"/>
		<rect x="150.00" y="215.00" width="250" height="20"/>
		<rect x="150.00" y="190.00" width="250" height="20"/>
		<rect x="150.00" y="165.00" width="250" height="20"/>
		<rect x="150.00" y="140.00" width="250" height="20"/>
		<rect x="150.00" y="115.00" width="250" height="20"/>
	</g>
	<text class="poloto_text poloto_name poloto_title" x="400.00" y="37.50">Stores by Positive Rating</text>
	<text class="poloto_text poloto_name poloto_x" x="400.00" y="481.25">Stores</text>
	<text class="poloto_text poloto_name poloto_y" x="37.50" y="250.00" transform="rotate(-90,37.50,250.00)">Quantity of Positive Rating</text>
	<g class="poloto_text poloto_ticks poloto_y">
		<text x="135.00" y="375.00">[0, 10)</text>
		<text x="135.00" y="350.00">[10, 20)</text>
		<text x="135.00" y="325.00">[20, 30)</text>
		<text x="135.00" y="300.00">[30, 50)</text>
		<text x="135.00" y="275.00">[50, 100)</text>
		<text x="135.00" y="250.00">[100, 500)</text>
		<text x="135.00" y="225.00">[500, 1000)</text>
		<text x="135.00" y="200.00">[1000, 2000)</text>
		<text x="135.00" y="175.00">[2000, 3000)</text>
		<text x="135.00" y="150.00">[3000, 5000)</text>
		<text x="135.00" y="125.00">&gt;= 5000</text>
	</g>
	<g class="poloto_imgs poloto_ticks poloto_y">
		<line x1="150.00" x2="144.00" y1="375.00" y2="375.00"/>
		<line x1="150.00" x2="144.00" y1="350.00" y2="350.00"/>
		<line x1="150.00" x2="144.00" y1="325.00" y2="325.00"/>
		<line x1="150.00" x2="144.00" y1="300.00" y2="300.00"/>
		<line x1="150.00" x2="144.00" y1="275.00" y2="275.00"/>
		<line x1="150.00" x2="144.00" y1="250.00" y2="250.00"/>
		<line x1="150.00" x2="144.00" y1="225.00" y2="225.00"/>
		<line x1="150.00" x2="144.00" y1="200.00" y2="200.00"/>
		<line x1="150.00" x2="144.00" y1="175.00" y2="175.00"/>
		<line x1="150.00" x2="144.00" y1="150.00" y2="150.00"/>
		<line x1="150.00" x2="144.00" y1="125.00" y2="125.00"/>
	</g>
	<g class="poloto_text poloto_ticks poloto_x">
		<text x="150.00" y="430.00">-1</text>
		<text x="400.00" y="430.00">0</text>
		<text x="650.00" y="430.00">1</text>
	</g>
	<g class="poloto_imgs poloto_ticks poloto_x">
		<line x1="150.00" x2="150.00" y1="400.00" y2="405.00"/>
		<line x1="400.00" x2="400.00" y1="400.00" y2="405.00"/>
		<line x1="650.00" x2="650.00" y1="400.00" y2="405.00"/>
	</g>
	<g class="poloto_grid poloto_x">
		<line x1="150.00" x2="150.00" y1="400.00" y2="100.00"/>
		<line x1="400.00" x2="400.00" y1="400.00" y2="100.00"/>
		<line x1="650.00" x2="650.00" y1="400.00" y2="100.00"/>
	</g>
	<path class="poloto_imgs poloto_ticks poloto_x" style="stroke-dasharray:12.5;stroke-dashoffset:-0;" d=" M 150.00 400.00 L 650.00 400.00"/>
	<path class="poloto_imgs poloto_ticks poloto_y" d=" M 150.00 400.00 L 150.00 100.00"/>
</svg>
