<svg class="poloto" width="800" height="500" viewBox="0 0 800 500" xmlns="http://www.w3.org/2000/svg">
	<style>
.poloto{
  stroke-linecap:round;
  stroke-linejoin:round;
  font-family:Roboto,sans-serif;
  font-size:16px;
}
.poloto_background{fill:AliceBlue;}
.poloto_scatter{stroke-width:7}
.poloto_line{stroke-width:2}
.poloto_text{fill: black;}
.poloto_name{font-size:24px;dominant-baseline:start;text-anchor:middle;}
.poloto_where{dominant-baseline:middle;text-anchor:start}
.poloto_text.poloto_legend{font-size:20px;dominant-baseline:middle;text-anchor:start;}
.poloto_text.poloto_ticks.poloto_y{dominant-baseline:middle;text-anchor:end}
.poloto_text.poloto_ticks.poloto_x{dominant-baseline:start;text-anchor:middle}
.poloto_imgs.poloto_ticks{stroke: black;stroke-width:3;fill:none;stroke-dasharray:none}
.poloto_grid{stroke:gray;stroke-width:0.5}

.poloto0.poloto_stroke{stroke:blue;}
.poloto1.poloto_stroke{stroke:red;}
.poloto2.poloto_stroke{stroke:green;}
.poloto3.poloto_stroke{stroke:gold;}
.poloto4.poloto_stroke{stroke:aqua;}
.poloto5.poloto_stroke{stroke:lime;}
.poloto6.poloto_stroke{stroke:orange;}
.poloto7.poloto_stroke{stroke:chocolate;}
.poloto0.poloto_fill{fill:blue;}
.poloto1.poloto_fill{fill:red;}
.poloto2.poloto_fill{fill:green;}
.poloto3.poloto_fill{fill:gold;}
.poloto4.poloto_fill{fill:aqua;}
.poloto5.poloto_fill{fill:lime;}
.poloto6.poloto_fill{fill:orange;}
.poloto7.poloto_fill{fill:chocolate;}

            .poloto_background{fill-opacity:0;}
            .poloto0.poloto_histo.poloto_imgs{fill:#3B77BC;stroke:black;stroke-width:1px}
            .poloto_grid{display:none}
            .poloto0.poloto_stroke{stroke:#3B77BC}
        
	</style>
	<circle r="1e5" class="poloto_background"/>
	<g id="poloto_plot0" class="poloto_plot poloto_imgs poloto_histo poloto0 poloto_fill">
		<rect x="150.00" y="347.14" width="3.5675082327113046" height="20"/>
		<rect x="150.00" y="304.29" width="4.5279912184412865" height="20"/>
		<rect x="150.00" y="261.43" width="19.346871569703637" height="20"/>
		<rect x="150.00" y="218.57" width="447.9967069154775" height="20"/>
		<rect x="150.00" y="175.71" width="373.62788144895717" height="20"/>
		<rect x="150.00" y="132.86" width="500" height="20"/>
	</g>
	<text class="poloto_text poloto_name poloto_title" x="400.00" y="37.50">Quantity of Product by Rating</text>
	<text class="poloto_text poloto_name poloto_x" x="400.00" y="481.25">Products</text>
	<text class="poloto_text poloto_name poloto_y" x="37.50" y="250.00" transform="rotate(-90,37.50,250.00)">Rating</text>
	<g class="poloto_text poloto_ticks poloto_y">
		<text x="135.00" y="357.14">[1, 2)</text>
		<text x="135.00" y="314.29">[2, 3)</text>
		<text x="135.00" y="271.43">[3, 4)</text>
		<text x="135.00" y="228.57">[4, 5)</text>
		<text x="135.00" y="185.71">5</text>
		<text x="135.00" y="142.86">unknown</text>
	</g>
	<g class="poloto_imgs poloto_ticks poloto_y">
		<line x1="150.00" x2="144.00" y1="357.14" y2="357.14"/>
		<line x1="150.00" x2="144.00" y1="314.29" y2="314.29"/>
		<line x1="150.00" x2="144.00" y1="271.43" y2="271.43"/>
		<line x1="150.00" x2="144.00" y1="228.57" y2="228.57"/>
		<line x1="150.00" x2="144.00" y1="185.71" y2="185.71"/>
		<line x1="150.00" x2="144.00" y1="142.86" y2="142.86"/>
	</g>
	<g class="poloto_text poloto_ticks poloto_x">
		<text x="150.00" y="430.00">0</text>
		<text x="218.61" y="430.00">500</text>
		<text x="287.21" y="430.00">1000</text>
		<text x="355.82" y="430.00">1500</text>
		<text x="424.42" y="430.00">2000</text>
		<text x="493.03" y="430.00">2500</text>
		<text x="561.64" y="430.00">3000</text>
		<text x="630.24" y="430.00">3500</text>
	</g>
	<g class="poloto_imgs poloto_ticks poloto_x">
		<line x1="150.00" x2="150.00" y1="400.00" y2="405.00"/>
		<line x1="218.61" x2="218.61" y1="400.00" y2="405.00"/>
		<line x1="287.21" x2="287.21" y1="400.00" y2="405.00"/>
		<line x1="355.82" x2="355.82" y1="400.00" y2="405.00"/>
		<line x1="424.42" x2="424.42" y1="400.00" y2="405.00"/>
		<line x1="493.03" x2="493.03" y1="400.00" y2="405.00"/>
		<line x1="561.64" x2="561.64" y1="400.00" y2="405.00"/>
		<line x1="630.24" x2="630.24" y1="400.00" y2="405.00"/>
	</g>
	<g class="poloto_grid poloto_x">
		<line x1="150.00" x2="150.00" y1="400.00" y2="100.00"/>
		<line x1="218.61" x2="218.61" y1="400.00" y2="100.00"/>
		<line x1="287.21" x2="287.21" y1="400.00" y2="100.00"/>
		<line x1="355.82" x2="355.82" y1="400.00" y2="100.00"/>
		<line x1="424.42" x2="424.42" y1="400.00" y2="100.00"/>
		<line x1="493.03" x2="493.03" y1="400.00" y2="100.00"/>
		<line x1="561.64" x2="561.64" y1="400.00" y2="100.00"/>
		<line x1="630.24" x2="630.24" y1="400.00" y2="100.00"/>
	</g>
	<path class="poloto_imgs poloto_ticks poloto_x" style="stroke-dasharray:6.860592755214052;stroke-dashoffset:-0;" d=" M 150.00 400.00 L 650.00 400.00"/>
	<path class="poloto_imgs poloto_ticks poloto_y" d=" M 150.00 400.00 L 150.00 100.00"/>
</svg>
