<svg class="poloto" width="800" height="500" viewBox="0 0 800 500" xmlns="http://www.w3.org/2000/svg">
	<style>
.poloto{
  stroke-linecap:round;
  stroke-linejoin:round;
  font-family:Roboto,sans-serif;
  font-size:16px;
}
.poloto_background{fill:AliceBlue;}
.poloto_scatter{stroke-width:7}
.poloto_line{stroke-width:2}
.poloto_text{fill: black;}
.poloto_name{font-size:24px;dominant-baseline:start;text-anchor:middle;}
.poloto_where{dominant-baseline:middle;text-anchor:start}
.poloto_text.poloto_legend{font-size:20px;dominant-baseline:middle;text-anchor:start;}
.poloto_text.poloto_ticks.poloto_y{dominant-baseline:middle;text-anchor:end}
.poloto_text.poloto_ticks.poloto_x{dominant-baseline:start;text-anchor:middle}
.poloto_imgs.poloto_ticks{stroke: black;stroke-width:3;fill:none;stroke-dasharray:none}
.poloto_grid{stroke:gray;stroke-width:0.5}

.poloto0.poloto_stroke{stroke:blue;}
.poloto1.poloto_stroke{stroke:red;}
.poloto2.poloto_stroke{stroke:green;}
.poloto3.poloto_stroke{stroke:gold;}
.poloto4.poloto_stroke{stroke:aqua;}
.poloto5.poloto_stroke{stroke:lime;}
.poloto6.poloto_stroke{stroke:orange;}
.poloto7.poloto_stroke{stroke:chocolate;}
.poloto0.poloto_fill{fill:blue;}
.poloto1.poloto_fill{fill:red;}
.poloto2.poloto_fill{fill:green;}
.poloto3.poloto_fill{fill:gold;}
.poloto4.poloto_fill{fill:aqua;}
.poloto5.poloto_fill{fill:lime;}
.poloto6.poloto_fill{fill:orange;}
.poloto7.poloto_fill{fill:chocolate;}

            .poloto_background{fill-opacity:0;}
            .poloto0.poloto_histo.poloto_imgs{fill:#3B77BC;stroke:black;stroke-width:1px}
            .poloto_grid{display:none}
            .poloto0.poloto_stroke{stroke:#3B77BC}
        
	</style>
	<circle r="1e5" class="poloto_background"/>
	<g id="poloto_plot0" class="poloto_plot poloto_imgs poloto_line poloto0 poloto_stroke" fill="none" stroke="black">
		<path d=" M 650.00 268.61 L 641.64 181.02 L 633.01 229.20 L 624.37 191.97 L 616.02 209.49 L 607.38 200.73 L 599.03 229.20 L 590.39 154.74 L 582.59 233.58 L 573.96 270.80 L 565.32 100.00 L 556.96 229.20 L 548.33 202.92 L 539.97 237.96 L 531.34 207.30 L 522.70 185.40 L 514.35 216.06 L 505.71 211.68 L 497.35 196.35 L 488.72 176.64 L 480.92 290.51 L 472.28 246.72 L 463.65 279.56 L 455.29 246.72 L 446.66 257.66 L 438.30 246.72 L 429.67 314.60 L 421.03 294.89 L 412.67 305.84 L 404.04 308.03 L 395.68 327.74 L 387.05 292.70 L 378.97 340.88 L 370.33 343.07 L 361.70 340.88 L 353.34 354.01 L 344.71 349.64 L 336.35 292.70 L 327.72 299.27 L 319.08 299.27 L 310.72 325.55 L 302.09 340.88 L 293.73 325.55 L 285.10 312.41 L 277.30 349.64 L 268.66 356.20 L 260.03 349.64 L 251.67 371.53 L 243.04 354.01 L 234.68 356.20 L 226.04 369.34 L 217.41 340.88 L 209.05 351.82 L 200.42 325.55 L 192.06 305.84 L 183.43 279.56 L 175.63 351.82 L 166.99 327.74 L 158.36 375.91 L 150.00 349.64"/>
	</g>
	<text class="poloto_text poloto_name poloto_title" x="400.00" y="37.50">Store Online Time</text>
	<text class="poloto_text poloto_name poloto_x" x="400.00" y="481.25">Date</text>
	<text class="poloto_text poloto_name poloto_y" x="37.50" y="250.00" transform="rotate(-90,37.50,250.00)">Stores</text>
	<text class="poloto_text poloto_where poloto_x" x="440.00" y="70.00">ยน2017-01-01 00:00:00 UTC in Years</text>
	<g class="poloto_text poloto_ticks poloto_y">
		<text x="135.00" y="400.00">0</text>
		<text x="135.00" y="356.20">20</text>
		<text x="135.00" y="312.41">40</text>
		<text x="135.00" y="268.61">60</text>
		<text x="135.00" y="224.82">80</text>
		<text x="135.00" y="181.02">100</text>
		<text x="135.00" y="137.23">120</text>
	</g>
	<g class="poloto_imgs poloto_ticks poloto_y">
		<line x1="150.00" x2="144.00" y1="400.00" y2="400.00"/>
		<line x1="150.00" x2="144.00" y1="356.20" y2="356.20"/>
		<line x1="150.00" x2="144.00" y1="312.41" y2="312.41"/>
		<line x1="150.00" x2="144.00" y1="268.61" y2="268.61"/>
		<line x1="150.00" x2="144.00" y1="224.82" y2="224.82"/>
		<line x1="150.00" x2="144.00" y1="181.02" y2="181.02"/>
		<line x1="150.00" x2="144.00" y1="137.23" y2="137.23"/>
	</g>
	<g class="poloto_text poloto_ticks poloto_x">
		<text x="166.99" y="430.00">2018ยน</text>
		<text x="268.66" y="430.00">2019</text>
		<text x="370.33" y="430.00">2020</text>
		<text x="472.28" y="430.00">2021</text>
		<text x="573.96" y="430.00">2022</text>
	</g>
	<g class="poloto_imgs poloto_ticks poloto_x">
		<line x1="166.99" x2="166.99" y1="400.00" y2="405.00"/>
		<line x1="268.66" x2="268.66" y1="400.00" y2="405.00"/>
		<line x1="370.33" x2="370.33" y1="400.00" y2="405.00"/>
		<line x1="472.28" x2="472.28" y1="400.00" y2="405.00"/>
		<line x1="573.96" x2="573.96" y1="400.00" y2="405.00"/>
	</g>
	<path class="poloto_imgs poloto_ticks poloto_x" d=" M 150.00 400.00 L 650.00 400.00"/>
	<path class="poloto_imgs poloto_ticks poloto_y" style="stroke-dasharray:10.94890510948905;stroke-dashoffset:-0;" d=" M 150.00 400.00 L 150.00 100.00"/>
</svg>
